<svg width="26" height="26" viewBox="0 0 26 26" fill="none" xmlns="http://www.w3.org/2000/svg">
<g clip-path="url(#clip0_33_3)">
<mask id="mask0_33_3" style="mask-type:luminance" maskUnits="userSpaceOnUse" x="0" y="0" width="26" height="26">
<path d="M0 0H26V26H0V0Z" fill="white"/>
<path d="M6.712 5.5H5.5C5.36739 5.5 5.24021 5.44732 5.14645 5.35355C5.05268 5.25979 5 5.13261 5 5C5 4.86739 5.05268 4.74021 5.14645 4.64645C5.24021 4.55268 5.36739 4.5 5.5 4.5H7.103C7.21453 4.50003 7.32285 4.53735 7.41073 4.60602C7.49861 4.6747 7.56101 4.77078 7.588 4.879L9.485 12.479C9.51367 12.6064 9.49135 12.74 9.42281 12.8512C9.35427 12.9623 9.24495 13.0423 9.11823 13.0739C8.99151 13.1055 8.85745 13.0863 8.74472 13.0203C8.63199 12.9544 8.54954 12.847 8.515 12.721L6.712 5.5Z" fill="black"/>
<path fill-rule="evenodd" clip-rule="evenodd" d="M18.4961 10.5H10.5061C10.3561 10.5 10.2061 10.517 10.0591 10.55C9.53913 10.6719 9.08861 10.9946 8.80602 11.4478C8.52342 11.9009 8.43176 12.4475 8.55106 12.968L9.33406 16.429C9.43333 16.8742 9.68122 17.2723 10.0369 17.5579C10.3926 17.8434 10.8349 17.9993 11.2911 18H17.7141C18.1696 17.9986 18.6112 17.8425 18.9664 17.5572C19.3216 17.272 19.5693 16.8745 19.6691 16.43L20.4521 12.968C20.5206 12.6733 20.5219 12.3669 20.4556 12.0716C20.3894 11.7764 20.2574 11.4999 20.0696 11.2627C19.8817 11.0255 19.6427 10.8337 19.3704 10.7017C19.0982 10.5696 18.7987 10.5007 18.4961 10.5ZM10.2851 11.525C10.3582 11.5083 10.433 11.4999 10.5081 11.5H18.4971C18.6495 11.5008 18.7998 11.5361 18.9368 11.6031C19.0737 11.6701 19.1937 11.7672 19.2879 11.887C19.3821 12.0069 19.4481 12.1465 19.4808 12.2954C19.5136 12.4443 19.5123 12.5987 19.4771 12.747L18.6931 16.209C18.6436 16.4324 18.5197 16.6324 18.3416 16.7762C18.1635 16.9199 17.9419 16.9988 17.7131 17H11.2911C10.8231 17 10.4161 16.672 10.3111 16.209L9.52806 12.747C9.46738 12.4846 9.51291 12.2089 9.65472 11.98C9.79654 11.7511 10.0231 11.5875 10.2851 11.525Z" fill="black"/>
<path d="M20 19.75C20 19.9798 19.9547 20.2074 19.8668 20.4197C19.7788 20.632 19.6499 20.8249 19.4874 20.9874C19.3249 21.1499 19.132 21.2788 18.9197 21.3668C18.7074 21.4547 18.4798 21.5 18.25 21.5C18.0202 21.5 17.7926 21.4547 17.5803 21.3668C17.368 21.2788 17.1751 21.1499 17.0126 20.9874C16.8501 20.8249 16.7212 20.632 16.6332 20.4197C16.5453 20.2074 16.5 19.9798 16.5 19.75C16.5 19.2859 16.6844 18.8408 17.0126 18.5126C17.3408 18.1844 17.7859 18 18.25 18C18.7141 18 19.1592 18.1844 19.4874 18.5126C19.8156 18.8408 20 19.2859 20 19.75ZM13 19.75C13 20.2141 12.8156 20.6592 12.4874 20.9874C12.1592 21.3156 11.7141 21.5 11.25 21.5C10.7859 21.5 10.3408 21.3156 10.0126 20.9874C9.68437 20.6592 9.5 20.2141 9.5 19.75C9.5 19.2859 9.68437 18.8408 10.0126 18.5126C10.3408 18.1844 10.7859 18 11.25 18C11.7141 18 12.1592 18.1844 12.4874 18.5126C12.8156 18.8408 13 19.2859 13 19.75Z" fill="black"/>
</mask>
<g mask="url(#mask0_33_3)">
<path d="M13 26C20.1797 26 26 20.1797 26 13C26 5.8203 20.1797 0 13 0C5.8203 0 0 5.8203 0 13C0 20.1797 5.8203 26 13 26Z" fill="#FDBF48"/>
</g>
</g>
<defs>
<clipPath id="clip0_33_3">
<rect width="26" height="26" fill="white"/>
</clipPath>
</defs>
</svg>
