<svg width="128" height="46" viewBox="0 0 128 46" fill="none" xmlns="http://www.w3.org/2000/svg">
<path d="M33.24 12.32C35.12 20.24 36.32 30.64 36.44 39.76C36.4 40 36.08 40.04 36.08 40.04C36.08 40.04 34.8 40.48 32.08 40.48C28.76 40.48 27.48 40.04 27.48 40.04C27.48 40.04 27.28 40 27.28 39.8C27.16 34.4 26.76 27.96 25.68 22.76C25.64 22.72 25.56 22.76 25.52 22.76C23.76 28.16 21.88 34.36 20.16 39.72C20.16 39.72 20.12 39.92 19.92 40.04C19.52 40.12 18.36 40.36 17.36 40.36C16.6 40.36 15.36 40.16 14.96 40C14.76 39.96 14.72 39.84 14.72 39.84C13.36 34.6 10.92 25.24 9.24 23.24C9.16 23.24 9.04 23.2 9 23.24C8.16 28.44 7.88 34.52 7.72 39.76C7.76 39.96 7.48 40 7.48 40C7.48 40 6 40.44 4.4 40.44C2.68 40.44 1.4 40 1.4 40C1.4 40 1.2 39.96 1.2 39.8C1.28 35.6 3.16 22.68 3.72 19C4 16.32 2.2 16 2.24 15.12C2.36 13.96 4.48 11.24 8.44 11.24C13.32 11.24 15.32 14.72 16.48 16.96C17.76 19.44 19.52 26.08 19.52 26.08C19.64 26.08 19.76 26.08 19.88 26.08C21.32 21.48 22.72 16.88 23.96 12.28C24.04 12.16 24.24 12.12 24.24 12.12C24.24 12.12 26.28 11.68 28.44 11.68C31.16 11.68 33 12.12 33 12.12C33 12.12 33.24 12.16 33.24 12.32Z" fill="#FDBF48"/>
<path d="M44.85 12.58C49.81 12.58 51.61 22.32 52.67 26.84C52.69 26.94 52.59 26.98 52.59 26.98C51.83 27.12 51.29 27.18 50.33 27.18C49.39 27.18 48.69 27.12 47.81 26.98C47.81 26.98 47.71 26.98 47.69 26.88C47.51 25.72 47.31 24.66 47.13 23.68H42.61C42.41 24.68 42.19 25.74 42.01 26.88C41.99 26.96 41.87 26.98 41.87 26.98C41.37 27.12 40.97 27.18 40.25 27.18C39.57 27.18 39.13 27.1 38.43 26.98C38.43 26.98 38.35 26.94 38.37 26.84C40.49 19.4 42.09 16.52 42.09 15.6C42.09 14.84 41.79 14.68 41.79 14.42C41.79 13.78 43.05 12.56 44.85 12.58ZM43.23 21.08H46.53C46.03 19.2 45.45 17.76 44.77 16.7C44.75 16.68 44.67 16.68 44.67 16.7C44.29 17.52 43.77 19.04 43.23 21.08ZM62.1417 12.8C63.3017 12.8 63.9017 13 63.9017 13C63.9017 13 64.0817 13.06 64.0017 13.16C62.4017 16.24 60.8817 18.96 59.0617 21.7V26.88C59.0617 26.98 58.9617 27 58.9617 27C58.3817 27.14 57.5217 27.2 56.8417 27.2C56.1417 27.2 55.3817 27.12 54.7617 27C54.7617 27 54.6817 26.98 54.6817 26.9C54.6817 26.9 54.7417 25.6 54.7017 22.4C54.2417 19.74 53.1017 17.66 51.6617 16.06C51.3417 15.7 50.9617 15.4 50.5617 15.18C50.4217 15.1 50.3617 15.06 50.3617 14.82C50.3617 14.22 51.1417 12.6 53.2417 12.6C56.5017 12.6 57.2417 15.76 58.0417 18.58H58.1417C59.0217 17 59.7417 14.86 60.3217 13.12C60.3617 13 60.5017 13 60.5017 13C60.5017 13 61.0817 12.8 62.1417 12.8ZM75.7788 12.66C76.2188 12.66 76.6988 13.64 76.6988 14.62C76.6988 16.24 75.5588 17.3 73.2588 17.3C72.9588 17.3 72.6388 17.28 72.2988 17.24V26.88C72.2988 26.98 72.1988 27 72.1988 27C71.6188 27.14 70.7588 27.2 70.0788 27.2C69.3788 27.2 68.6188 27.12 67.9988 27C67.9988 27 67.9188 26.98 67.9188 26.9C67.9388 26.86 67.9388 22.9 67.9388 16.92C67.7188 16.9 67.4988 16.9 67.2988 16.9C65.8188 16.9 64.8588 17.18 64.5388 17.18C64.2388 17.18 63.8188 16.14 63.8188 15.36C63.8188 13.84 64.7788 12.78 66.8788 12.78C68.2588 12.78 71.3588 13.04 72.7388 13.04C75.1588 13.04 75.3188 12.66 75.7788 12.66ZM83.2719 12.6C88.2719 12.6 90.4919 16 90.4919 20C90.4919 24.02 88.1919 27.4 83.2719 27.4C78.6719 27.4 76.0719 24.02 76.0719 20C76.0719 16 78.6519 12.6 83.2719 12.6ZM83.2719 24.56C85.1319 24.56 85.9319 22.62 85.9319 20C85.9319 17.46 84.9919 15.4 83.2719 15.4C81.6119 15.4 80.6319 17.44 80.6319 20C80.6319 22.62 81.6119 24.56 83.2719 24.56ZM97.1361 12.6C100.516 12.6 103.336 14.36 103.336 17.74C103.336 20.54 101.196 22.6 98.4761 22.6C97.5161 22.6 96.8961 22.26 96.8961 21.98C96.8961 21.84 96.9961 21.7 97.2361 21.58C97.9961 21.2 99.0161 19.96 99.0161 18.18C99.0161 16.94 98.3761 15.48 96.7361 15.48C96.5561 15.48 96.3761 15.5 96.1761 15.54V26.88C96.1761 26.98 96.0761 27 96.0761 27C95.4961 27.14 94.6361 27.2 93.9561 27.2C93.2561 27.2 92.4961 27.12 91.8761 27C91.8361 27 91.8161 26.94 91.8161 26.9V17.3C91.8161 15.1 90.8961 15.12 90.8961 14.68C90.8961 14.02 92.8361 12.6 97.1361 12.6ZM109.17 15.26V26.88C109.17 26.92 109.15 26.96 109.09 26.98C108.47 27.12 107.67 27.2 106.99 27.2C106.23 27.2 105.51 27.14 104.87 26.98C104.87 26.98 104.79 26.96 104.79 26.88V17.14C104.79 15.92 104.47 15.4 103.87 14.98C103.71 14.88 103.67 14.84 103.67 14.66C103.67 14.28 104.49 12.62 106.43 12.62C108.07 12.62 109.17 13.48 109.17 15.26ZM116.666 12.58C121.626 12.58 123.426 22.32 124.486 26.84C124.506 26.94 124.406 26.98 124.406 26.98C123.646 27.12 123.106 27.18 122.146 27.18C121.206 27.18 120.506 27.12 119.626 26.98C119.626 26.98 119.526 26.98 119.506 26.88C119.326 25.72 119.126 24.66 118.946 23.68H114.426C114.226 24.68 114.006 25.74 113.826 26.88C113.806 26.96 113.686 26.98 113.686 26.98C113.186 27.12 112.786 27.18 112.066 27.18C111.386 27.18 110.946 27.1 110.246 26.98C110.246 26.98 110.166 26.94 110.186 26.84C112.306 19.4 113.906 16.52 113.906 15.6C113.906 14.84 113.606 14.68 113.606 14.42C113.606 13.78 114.866 12.56 116.666 12.58ZM115.046 21.08H118.346C117.846 19.2 117.266 17.76 116.586 16.7C116.566 16.68 116.486 16.68 116.486 16.7C116.106 17.52 115.586 19.04 115.046 21.08Z" fill="#FDBF48"/>
<path d="M44.426 37.578C45.91 37.578 46.862 36.92 47.128 36.92C47.324 36.92 47.38 37.088 47.38 37.214C47.38 38.264 45.644 40.28 43.25 40.28C39.89 40.28 38.28 38.026 38.28 35.17C38.28 32.146 40.45 29.934 43.376 29.934C45.434 29.934 47.142 30.984 47.142 32.496C47.142 33.294 46.652 34.232 45.448 34.232C44.748 34.232 44.062 33.882 44.062 33.574C44.062 33.504 44.118 33.168 44.118 32.972C44.118 32.384 43.908 31.74 43.166 31.74C42.13 31.74 41.472 33.042 41.472 34.33C41.472 36.458 42.508 37.578 44.426 37.578ZM56.2673 29.92C59.7673 29.92 61.3213 32.3 61.3213 35.1C61.3213 37.914 59.7113 40.28 56.2673 40.28C53.0473 40.28 51.2273 37.914 51.2273 35.1C51.2273 32.3 53.0333 29.92 56.2673 29.92ZM56.2673 38.292C57.5693 38.292 58.1293 36.934 58.1293 35.1C58.1293 33.322 57.4713 31.88 56.2673 31.88C55.1053 31.88 54.4193 33.308 54.4193 35.1C54.4193 36.934 55.1053 38.292 56.2673 38.292ZM74.7362 30.228C74.7362 30.228 74.7922 30.242 74.7922 30.298V39.916C74.7922 39.986 74.7222 40 74.7222 40C74.3722 40.098 74.0362 40.14 73.6302 40.14C73.2102 40.14 72.9442 40.112 72.5382 40C72.5382 40 72.5102 40 72.4962 39.972C72.2722 39.706 69.6822 36.64 68.0442 34.694C68.0302 34.694 68.0162 34.694 68.0162 34.694C68.0162 37.466 68.0162 39.916 68.0162 39.916C68.0162 39.986 67.9462 40 67.9462 40C67.5962 40.098 67.2602 40.14 66.8542 40.14C66.4342 40.14 66.1682 40.112 65.7622 40C65.7622 40 65.7062 39.986 65.7062 39.93C65.7062 39.93 65.7062 33.028 65.7062 32.762C65.7062 31.572 65.1042 31.656 65.1042 31.334C65.1042 30.928 65.8182 29.906 67.0782 29.906C67.9742 29.906 68.5902 30.256 69.1922 30.844C69.7942 31.432 72.4402 34.764 72.4402 34.764L72.4822 34.75V30.312C72.4822 30.242 72.5522 30.228 72.5522 30.228C72.9162 30.13 73.2522 30.088 73.6442 30.088C74.0642 30.088 74.3302 30.116 74.7362 30.228ZM87.1295 29.962C87.4375 29.962 87.7735 30.648 87.7735 31.334C87.7735 32.468 86.9755 33.21 85.3655 33.21C85.1555 33.21 84.9315 33.196 84.6935 33.168V39.916C84.6935 39.986 84.6235 40 84.6235 40C84.2175 40.098 83.6155 40.14 83.1395 40.14C82.6495 40.14 82.1175 40.084 81.6835 40C81.6835 40 81.6275 39.986 81.6275 39.93C81.6415 39.902 81.6415 37.13 81.6415 32.944C81.4875 32.93 81.3335 32.93 81.1935 32.93C80.1575 32.93 79.4855 33.126 79.2615 33.126C79.0515 33.126 78.7575 32.398 78.7575 31.852C78.7575 30.788 79.4295 30.046 80.8995 30.046C81.8655 30.046 84.0355 30.228 85.0015 30.228C86.6955 30.228 86.8075 29.962 87.1295 29.962ZM100.644 37.774C100.896 37.956 101.05 38.04 101.162 38.11C101.246 38.166 101.274 38.208 101.274 38.306C101.274 38.978 100.868 40.28 99.3557 40.28C96.8777 40.28 96.0237 36.598 96.0237 35.758C96.0237 35.548 96.0377 35.478 96.2337 35.366C96.9197 34.974 97.4377 34.442 97.4377 33.42C97.4377 32.566 96.9337 31.992 95.9957 31.992C95.6597 31.992 95.3237 32.048 95.3237 32.048V39.93C95.3237 40 95.2537 40.014 95.2537 40.014C94.8477 40.112 94.2457 40.154 93.7697 40.154C93.2797 40.154 92.7617 40.098 92.3277 40.014C92.3277 40.014 92.2717 40 92.2717 39.944V33.112C92.2717 31.684 91.6277 31.698 91.6277 31.39C91.6277 30.928 93.1397 29.934 96.2757 29.934C98.5297 29.934 100.448 30.928 100.448 33.098C100.448 34.064 99.8737 35.044 98.8097 35.506L98.7817 35.576C98.9637 36.01 99.7057 37.088 100.644 37.774ZM109.888 29.92C113.388 29.92 114.942 32.3 114.942 35.1C114.942 37.914 113.332 40.28 109.888 40.28C106.668 40.28 104.848 37.914 104.848 35.1C104.848 32.3 106.654 29.92 109.888 29.92ZM109.888 38.292C111.19 38.292 111.75 36.934 111.75 35.1C111.75 33.322 111.092 31.88 109.888 31.88C108.726 31.88 108.04 33.308 108.04 35.1C108.04 36.934 108.726 38.292 109.888 38.292ZM122.575 31.754V37.522C123.807 37.578 124.535 37.48 125.011 37.368C125.585 37.228 125.767 37.046 125.935 37.046C126.243 37.046 126.579 37.69 126.579 38.376C126.579 39.51 125.893 40.28 124.325 40.28C123.611 40.28 121.763 40 121.189 40C120.265 40 119.943 40.126 119.719 40.126C119.509 40.126 119.425 39.846 119.425 39.552C119.425 39.006 119.509 38.166 119.509 36.808C119.509 35.87 119.509 33.07 119.509 33.07C119.509 32.216 119.285 31.852 118.865 31.558C118.753 31.488 118.725 31.46 118.725 31.334C118.725 31.068 119.299 29.906 120.657 29.906C121.805 29.906 122.575 30.508 122.575 31.754Z" fill="#36B75A"/>
</svg>
