<svg width="125" height="46" viewBox="0 0 125 46" fill="none" xmlns="http://www.w3.org/2000/svg">
<path d="M33.24 12.32C35.12 20.24 36.32 30.64 36.44 39.76C36.4 40 36.08 40.04 36.08 40.04C36.08 40.04 34.8 40.48 32.08 40.48C28.76 40.48 27.48 40.04 27.48 40.04C27.48 40.04 27.28 40 27.28 39.8C27.16 34.4 26.76 27.96 25.68 22.76C25.64 22.72 25.56 22.76 25.52 22.76C23.76 28.16 21.88 34.36 20.16 39.72C20.16 39.72 20.12 39.92 19.92 40.04C19.52 40.12 18.36 40.36 17.36 40.36C16.6 40.36 15.36 40.16 14.96 40C14.76 39.96 14.72 39.84 14.72 39.84C13.36 34.6 10.92 25.24 9.24 23.24C9.16 23.24 9.04 23.2 9 23.24C8.16 28.44 7.88 34.52 7.72 39.76C7.76 39.96 7.48 40 7.48 40C7.48 40 6 40.44 4.4 40.44C2.68 40.44 1.4 40 1.4 40C1.4 40 1.2 39.96 1.2 39.8C1.28 35.6 3.16 22.68 3.72 19C4 16.32 2.2 16 2.24 15.12C2.36 13.96 4.48 11.24 8.44 11.24C13.32 11.24 15.32 14.72 16.48 16.96C17.76 19.44 19.52 26.08 19.52 26.08C19.64 26.08 19.76 26.08 19.88 26.08C21.32 21.48 22.72 16.88 23.96 12.28C24.04 12.16 24.24 12.12 24.24 12.12C24.24 12.12 26.28 11.68 28.44 11.68C31.16 11.68 33 12.12 33 12.12C33 12.12 33.24 12.16 33.24 12.32Z" fill="#FDBF48"/>
<path d="M44.6 12.58C49.56 12.58 51.36 22.32 52.42 26.84C52.44 26.94 52.34 26.98 52.34 26.98C51.58 27.12 51.04 27.18 50.08 27.18C49.14 27.18 48.44 27.12 47.56 26.98C47.56 26.98 47.46 26.98 47.44 26.88C47.26 25.72 47.06 24.66 46.88 23.68H42.36C42.16 24.68 41.94 25.74 41.76 26.88C41.74 26.96 41.62 26.98 41.62 26.98C41.12 27.12 40.72 27.18 40 27.18C39.32 27.18 38.88 27.1 38.18 26.98C38.18 26.98 38.1 26.94 38.12 26.84C40.24 19.4 41.84 16.52 41.84 15.6C41.84 14.84 41.54 14.68 41.54 14.42C41.54 13.78 42.8 12.56 44.6 12.58ZM42.98 21.08H46.28C45.78 19.2 45.2 17.76 44.52 16.7C44.5 16.68 44.42 16.68 44.42 16.7C44.04 17.52 43.52 19.04 42.98 21.08ZM61.8917 12.8C63.0517 12.8 63.6517 13 63.6517 13C63.6517 13 63.8317 13.06 63.7517 13.16C62.1517 16.24 60.6317 18.96 58.8117 21.7V26.88C58.8117 26.98 58.7117 27 58.7117 27C58.1317 27.14 57.2717 27.2 56.5917 27.2C55.8917 27.2 55.1317 27.12 54.5117 27C54.5117 27 54.4317 26.98 54.4317 26.9C54.4317 26.9 54.4917 25.6 54.4517 22.4C53.9917 19.74 52.8517 17.66 51.4117 16.06C51.0917 15.7 50.7117 15.4 50.3117 15.18C50.1717 15.1 50.1117 15.06 50.1117 14.82C50.1117 14.22 50.8917 12.6 52.9917 12.6C56.2517 12.6 56.9917 15.76 57.7917 18.58H57.8917C58.7717 17 59.4917 14.86 60.0717 13.12C60.1117 13 60.2517 13 60.2517 13C60.2517 13 60.8317 12.8 61.8917 12.8ZM75.5288 12.66C75.9688 12.66 76.4488 13.64 76.4488 14.62C76.4488 16.24 75.3088 17.3 73.0088 17.3C72.7088 17.3 72.3888 17.28 72.0488 17.24V26.88C72.0488 26.98 71.9488 27 71.9488 27C71.3688 27.14 70.5088 27.2 69.8288 27.2C69.1288 27.2 68.3688 27.12 67.7488 27C67.7488 27 67.6688 26.98 67.6688 26.9C67.6888 26.86 67.6888 22.9 67.6888 16.92C67.4688 16.9 67.2488 16.9 67.0488 16.9C65.5688 16.9 64.6088 17.18 64.2888 17.18C63.9888 17.18 63.5688 16.14 63.5688 15.36C63.5688 13.84 64.5288 12.78 66.6288 12.78C68.0088 12.78 71.1088 13.04 72.4888 13.04C74.9088 13.04 75.0688 12.66 75.5288 12.66ZM83.0219 12.6C88.0219 12.6 90.2419 16 90.2419 20C90.2419 24.02 87.9419 27.4 83.0219 27.4C78.4219 27.4 75.8219 24.02 75.8219 20C75.8219 16 78.4019 12.6 83.0219 12.6ZM83.0219 24.56C84.8819 24.56 85.6819 22.62 85.6819 20C85.6819 17.46 84.7419 15.4 83.0219 15.4C81.3619 15.4 80.3819 17.44 80.3819 20C80.3819 22.62 81.3619 24.56 83.0219 24.56ZM96.8861 12.6C100.266 12.6 103.086 14.36 103.086 17.74C103.086 20.54 100.946 22.6 98.2261 22.6C97.2661 22.6 96.6461 22.26 96.6461 21.98C96.6461 21.84 96.7461 21.7 96.9861 21.58C97.7461 21.2 98.7661 19.96 98.7661 18.18C98.7661 16.94 98.1261 15.48 96.4861 15.48C96.3061 15.48 96.1261 15.5 95.9261 15.54V26.88C95.9261 26.98 95.8261 27 95.8261 27C95.2461 27.14 94.3861 27.2 93.7061 27.2C93.0061 27.2 92.2461 27.12 91.6261 27C91.5861 27 91.5661 26.94 91.5661 26.9V17.3C91.5661 15.1 90.6461 15.12 90.6461 14.68C90.6461 14.02 92.5861 12.6 96.8861 12.6ZM108.92 15.26V26.88C108.92 26.92 108.9 26.96 108.84 26.98C108.22 27.12 107.42 27.2 106.74 27.2C105.98 27.2 105.26 27.14 104.62 26.98C104.62 26.98 104.54 26.96 104.54 26.88V17.14C104.54 15.92 104.22 15.4 103.62 14.98C103.46 14.88 103.42 14.84 103.42 14.66C103.42 14.28 104.24 12.62 106.18 12.62C107.82 12.62 108.92 13.48 108.92 15.26ZM116.416 12.58C121.376 12.58 123.176 22.32 124.236 26.84C124.256 26.94 124.156 26.98 124.156 26.98C123.396 27.12 122.856 27.18 121.896 27.18C120.956 27.18 120.256 27.12 119.376 26.98C119.376 26.98 119.276 26.98 119.256 26.88C119.076 25.72 118.876 24.66 118.696 23.68H114.176C113.976 24.68 113.756 25.74 113.576 26.88C113.556 26.96 113.436 26.98 113.436 26.98C112.936 27.12 112.536 27.18 111.816 27.18C111.136 27.18 110.696 27.1 109.996 26.98C109.996 26.98 109.916 26.94 109.936 26.84C112.056 19.4 113.656 16.52 113.656 15.6C113.656 14.84 113.356 14.68 113.356 14.42C113.356 13.78 114.616 12.56 116.416 12.58ZM114.796 21.08H118.096C117.596 19.2 117.016 17.76 116.336 16.7C116.316 16.68 116.236 16.68 116.236 16.7C115.856 17.52 115.336 19.04 114.796 21.08Z" fill="#FDBF48"/>
<path d="M46.456 37.48C46.652 37.41 46.792 37.606 46.736 37.816C46.428 38.838 45.112 40.28 42.9 40.28C40.744 40.28 38.924 39.216 38.924 36.78C38.924 36.78 38.91 33.63 38.91 33.224C38.91 31.684 38.28 31.698 38.28 31.39C38.28 30.998 39.148 30.158 41.22 30.158C42.34 30.172 43.628 30.186 44.44 30.2C45.392 30.2 45.826 29.976 46.008 29.976C46.218 29.976 46.624 30.382 46.624 31.306C46.624 32.286 46.022 33.126 44.454 33.126C43.614 33.126 41.948 33.07 41.948 33.07V34.288C43.922 34.386 44.902 34.134 45.196 34.134C45.308 34.134 45.406 34.26 45.406 34.54C45.406 35.254 44.986 36.29 43.656 36.29C43.264 36.29 42.536 36.22 41.948 36.136C41.948 36.164 41.948 36.192 41.948 36.22C41.948 37.438 42.816 37.942 44.048 37.942C44.734 37.942 45.546 37.774 46.456 37.48ZM63.3273 30.228C63.3273 30.228 63.3833 30.242 63.3833 30.298V39.916C63.3833 39.986 63.3133 40 63.3133 40C62.9633 40.098 62.6273 40.14 62.2213 40.14C61.8013 40.14 61.5353 40.112 61.1293 40C61.1293 40 61.1013 40 61.0873 39.972C60.8633 39.706 58.2733 36.64 56.6353 34.694C56.6213 34.694 56.6073 34.694 56.6073 34.694C56.6073 37.466 56.6073 39.916 56.6073 39.916C56.6073 39.986 56.5373 40 56.5373 40C56.1873 40.098 55.8513 40.14 55.4453 40.14C55.0253 40.14 54.7593 40.112 54.3533 40C54.3533 40 54.2973 39.986 54.2973 39.93C54.2973 39.93 54.2973 33.028 54.2973 32.762C54.2973 31.572 53.6953 31.656 53.6953 31.334C53.6953 30.928 54.4093 29.906 55.6693 29.906C56.5653 29.906 57.1813 30.256 57.7833 30.844C58.3853 31.432 61.0313 34.764 61.0313 34.764L61.0733 34.75V30.312C61.0733 30.242 61.1433 30.228 61.1433 30.228C61.5073 30.13 61.8433 30.088 62.2353 30.088C62.6553 30.088 62.9213 30.116 63.3273 30.228ZM74.917 31.768C74.917 33.182 74.875 34.764 74.917 36.164C74.959 37.34 75.505 38.054 76.457 38.054C77.465 38.054 77.997 37.326 78.039 36.15C78.109 34.26 78.039 32.216 78.039 30.298C78.039 30.242 78.095 30.228 78.095 30.228C78.515 30.13 78.725 30.088 79.215 30.088C79.649 30.088 79.887 30.144 80.279 30.228C80.321 30.242 80.335 30.27 80.335 30.298C80.335 32.048 80.363 33.826 80.335 35.562C80.279 38.936 78.669 40.308 76.065 40.308C73.601 40.308 71.795 39.146 71.795 35.604V33.098C71.795 32.244 71.571 31.88 71.151 31.586C71.039 31.516 71.011 31.488 71.011 31.362C71.011 31.096 71.557 29.934 72.971 29.934C74.105 29.934 74.917 30.522 74.917 31.768Z" fill="#36B75A"/>
</svg>
