<svg width="36" height="30" viewBox="0 0 36 30" fill="none" xmlns="http://www.w3.org/2000/svg">
<path d="M32.24 1.32C34.12 9.24 35.32 19.64 35.44 28.76C35.4 29 35.08 29.04 35.08 29.04C35.08 29.04 33.8 29.48 31.08 29.48C27.76 29.48 26.48 29.04 26.48 29.04C26.48 29.04 26.28 29 26.28 28.8C26.16 23.4 25.76 16.96 24.68 11.76C24.64 11.72 24.56 11.76 24.52 11.76C22.76 17.16 20.88 23.36 19.16 28.72C19.16 28.72 19.12 28.92 18.92 29.04C18.52 29.12 17.36 29.36 16.36 29.36C15.6 29.36 14.36 29.16 13.96 29C13.76 28.96 13.72 28.84 13.72 28.84C12.36 23.6 9.92 14.24 8.24 12.24C8.16 12.24 8.04 12.2 8 12.24C7.16 17.44 6.88 23.52 6.72 28.76C6.76 28.96 6.48 29 6.48 29C6.48 29 5 29.44 3.4 29.44C1.68 29.44 0.4 29 0.4 29C0.4 29 0.2 28.96 0.2 28.8C0.28 24.6 2.16 11.68 2.72 8C3 5.32 1.2 5 1.24 4.12C1.36 2.96 3.48 0.239998 7.44 0.239998C12.32 0.239998 14.32 3.72 15.48 5.96C16.76 8.44 18.52 15.08 18.52 15.08C18.64 15.08 18.76 15.08 18.88 15.08C20.32 10.48 21.72 5.88 22.96 1.28C23.04 1.16 23.24 1.12 23.24 1.12C23.24 1.12 25.28 0.68 27.44 0.68C30.16 0.68 32 1.12 32 1.12C32 1.12 32.24 1.16 32.24 1.32Z" fill="#FDBF48"/>
</svg>
