<svg width="24" height="24" viewBox="0 0 24 24" fill="none" xmlns="http://www.w3.org/2000/svg">
<g id="emojione-monotone:cheese-wedge">
<path id="Vector" d="M23.2469 8.40637C23.2281 7.0485 23.2233 6.68325 22.7489 6.342L22.7294 6.32812C22.5216 6.17062 21.9843 5.8875 21.7626 5.7735C18.8294 4.206 15.5384 3.375 12.2556 3.375C11.6035 3.375 11.0928 3.4065 10.7545 3.42787C10.6086 3.43687 10.4991 3.44438 10.4298 3.44438C9.679 3.44438 9.29688 3.69412 8.99763 3.92775C8.96988 3.9495 8.9455 3.97087 8.91888 3.987C8.89788 3.99787 8.87275 4.00575 8.848 4.0155C8.467 4.1625 8.083 4.3965 7.855 5.1075C7.777 5.35162 7.23363 5.59725 7.02063 5.59725C6.49488 5.59725 6.10338 5.889 5.75838 6.14625C5.638 6.23625 5.5135 6.32887 5.38488 6.4095C4.94238 6.68512 4.78188 6.92775 4.67838 7.24088C4.63149 7.23662 4.58445 7.23437 4.53738 7.23413C4.3435 7.23413 4.17213 7.27988 4.02625 7.36987C3.5815 7.47563 3.31338 7.77037 3.118 8.35987C3.01542 8.31631 2.90507 8.29399 2.79363 8.29425C2.377 8.29425 2.07963 8.5875 1.8175 8.84625C1.73688 8.92537 1.65363 9.00787 1.59063 9.05775C1.56813 9.07575 1.54488 9.08512 1.47888 9.10987C1.29288 9.17887 0.728127 9.38925 0.762627 10.2079C0.782127 10.6508 0.762252 11.7589 0.762252 11.7701C0.762252 12.3105 1.35775 12.6161 1.35888 12.9956C1.35963 13.203 0.841377 13.1992 0.841377 14.1731C0.841377 14.4202 0.857877 16.605 0.857877 16.863C0.857877 17.6182 1.55238 17.9449 1.20963 17.985C0.791877 18.0345 0.730752 18.8501 0.754377 19.4842C0.758127 19.5772 0.761502 19.6624 0.761502 19.7299C0.760752 20.3175 1.18188 20.625 1.59813 20.625C1.76613 20.625 1.91163 20.5793 2.02825 20.5421C2.07025 20.529 2.13363 20.5091 2.15763 20.5061C2.3545 20.4802 6.5365 19.8668 6.85713 19.7944C7.14438 19.7299 7.20175 19.1201 7.78 19.0297C8.13175 18.975 8.34588 19.536 8.758 19.536C8.84388 19.536 13.2231 18.8614 13.7628 18.7751C14.5488 18.6491 14.2413 18.1939 14.6646 18.1665C14.9024 18.1511 15.2995 18.4654 15.7071 18.4654C15.8793 18.4654 16.0855 18.4433 16.4185 18.3896C17.1288 18.2741 22.0173 17.5369 22.0668 17.5294C22.1133 17.5215 22.1421 17.5185 22.1684 17.5155C23.1468 17.4038 23.1468 16.5562 23.1468 16.05C23.1468 15.5505 23.167 14.4011 23.1888 13.1835C23.2221 11.3561 23.2585 9.28575 23.2469 8.40637ZM22.444 16.0496C22.444 16.8877 22.3038 16.7741 21.9629 16.8326C21.9629 16.8326 17.029 17.5766 16.3071 17.6947C16.0296 17.7394 15.844 17.7615 15.7079 17.7615C15.6633 17.7615 15.6265 17.7574 15.5909 17.7529C15.2151 17.6681 15.4338 16.9792 14.6875 17.1225C13.8681 17.2796 13.7624 18.0825 13.7609 18.096C13.6949 18.126 13.5891 18.141 13.3585 18.1646C12.7818 18.2224 9.901 18.6653 9.24663 18.7676C9.12288 18.7211 8.96125 18.6251 8.7505 18.4429C8.04663 17.8357 7.2625 17.8357 6.99213 18.3371C6.72138 18.8385 6.5935 18.9791 6.31825 19.182C6.05763 19.2413 2.36725 19.7693 2.06688 19.8086C1.89063 19.8315 1.71438 19.9219 1.59813 19.9219C1.516 19.9219 1.46425 19.8765 1.46425 19.7302C1.46425 19.434 1.41213 18.8453 1.501 18.6143C1.65588 18.5269 2.10063 18.6877 2.12275 18.0964C2.15013 17.3816 1.5865 16.8469 1.5835 16.8439C1.5565 16.6654 1.54371 16.4851 1.54525 16.3046C1.54525 15.3671 1.51825 14.4251 1.56888 14.0767C1.69975 13.8037 1.9915 13.7996 2.31213 13.5064C2.74563 13.1092 2.77188 12.2651 2.12425 12.2096C1.831 12.1837 1.669 12.1316 1.5745 12.081C1.50176 11.9991 1.46264 11.8928 1.465 11.7833C1.465 11.7833 1.48563 10.6474 1.465 10.1786C1.44513 9.70837 1.70613 9.86513 2.02675 9.6105C2.29825 9.39563 2.59788 8.99925 2.79325 8.99887C2.82888 8.99887 2.86113 9.01238 2.88925 9.04275C2.97588 9.13688 3.12288 9.249 3.27888 9.249C3.44763 9.249 3.6265 9.11775 3.75138 8.69062C3.9925 7.86825 4.19275 8.142 4.3735 7.986C4.41513 7.95 4.47213 7.93913 4.53738 7.93913C4.63975 7.93913 4.76275 7.9665 4.8805 7.9665C5.011 7.9665 5.13475 7.93275 5.21613 7.79025C5.4175 7.43813 5.25588 7.32075 5.75763 7.008C6.1795 6.74437 6.48813 6.4305 6.826 6.336C7.24488 6.45337 7.71813 6.6675 8.63725 5.77012C9.08238 5.3355 8.37063 5.39887 8.76213 4.88287C8.92638 4.707 9.10975 4.68975 9.26763 4.60013C9.50838 4.46325 9.68875 4.14975 10.4305 4.14975C10.6664 4.14975 11.311 4.08037 12.2564 4.08037C13.0244 4.08037 13.9949 4.12875 15.1045 4.29525C15.4038 4.37775 19.1211 5.41163 20.6238 6.3045C21.6678 6.924 21.7229 7.01137 21.5875 7.2045C21.4521 7.39838 21.1203 7.37287 18.5436 7.92225C18.0633 8.02387 17.7059 8.0535 17.7186 8.17237C17.7321 8.29125 18.4626 8.10712 19.2201 8.04712C19.9773 7.9875 22.1819 7.52588 22.3443 7.7235C22.4264 7.82363 22.5348 8.61525 22.5456 9.15637C22.534 11.112 22.444 14.9745 22.444 16.0496Z" fill="#36B75A"/>
<path id="Vector_2" d="M14.0688 9.04151C13.7234 8.90314 13.825 8.36914 13.9567 8.49776C14.0887 8.62639 14.1498 8.76439 14.4944 8.75501C14.8394 8.74526 16.4632 8.25026 16.5337 8.52739C16.6045 8.80451 17.3958 9.09101 17.2537 8.89451C17.1123 8.69801 17.1929 8.55701 17.3245 8.36914C17.4562 8.18089 17.578 8.07139 17.1123 8.01214C16.645 7.95326 16.5235 8.13101 16.513 8.21989C16.5029 8.30951 15.0018 8.48726 14.7374 8.52739C14.4745 8.56639 14.4134 8.57689 14.3422 8.47789C14.2717 8.37889 14.281 8.11114 13.348 8.11114C12.415 8.11114 12.6685 8.52701 12.7799 8.66614C12.8913 8.80414 12.5568 8.86414 11.9992 8.93276C11.4408 9.00251 6.17617 9.79451 5.96317 9.81401C5.74979 9.83389 5.21317 9.49751 4.91842 9.65651C4.62442 9.81401 4.77629 10.0225 4.43092 10.0716C4.27942 10.093 2.30505 10.3784 1.99717 10.4286C1.00192 10.5888 2.8368 10.5115 3.45555 10.4526C4.0743 10.3926 5.09092 10.4238 5.29417 10.2258C5.49742 10.0278 5.8278 10.0945 6.12255 10.1009C6.4158 10.1069 12.4252 9.06176 12.7698 9.00289C13.1152 8.94364 13.1152 9.34939 13.4395 9.43864C13.7643 9.52714 14.4134 9.18064 14.0688 9.04151ZM7.94617 11.1621C7.04804 10.9319 5.78279 11.3249 5.38004 12.4641C5.27955 12.748 5.23042 13.078 5.25705 13.4571C5.39167 15.3599 8.2818 14.7696 8.81954 13.4571C9.1983 12.5346 9.23204 11.9425 8.78092 11.554C8.59079 11.3901 8.32454 11.2593 7.94617 11.1621ZM14.0733 11.869C13.8175 12.2436 13.7024 12.664 13.8708 13.1005C14.1194 13.7433 14.905 14.1231 15.7225 14.1231C16.8618 14.1231 18.0712 12.8635 17.7749 12.2309C16.9754 10.5239 14.5252 11.2083 14.0733 11.869ZM9.85979 16.3079C9.69892 17.1051 10.4932 17.4734 11.3107 17.4734C12.4499 17.4734 13.2918 16.7125 12.9959 16.0799C12.196 14.3733 10.0555 15.3393 9.85979 16.3079ZM4.55204 16.1301C3.60704 16.1301 2.90842 16.7448 3.15405 17.2548C3.8178 18.6325 5.59304 17.8533 5.7558 17.071C5.8893 16.4279 5.23042 16.1301 4.55204 16.1301ZM20.044 13.9833C19.1587 13.9833 18.5039 14.7419 18.7338 15.3723C19.3555 17.0729 21.0198 16.1106 21.172 15.1454C21.2969 14.3508 20.6793 13.9833 20.044 13.9833ZM20.8638 9.67039C20.4535 8.80489 18.4739 8.85664 18.2778 9.82489C18.1165 10.6218 18.9108 10.9908 19.7283 10.9908C20.8675 10.9908 21.1627 10.3011 20.8638 9.67039ZM16.3874 7.36939C17.5267 7.36939 18.4334 7.18789 18.1345 6.55676C17.7243 5.69126 15.9258 5.70964 15.2665 6.52789C14.7569 7.16126 15.5703 7.36939 16.3874 7.36939ZM8.52855 8.67851C9.6678 8.67851 10.5749 8.49701 10.276 7.86589C9.8658 7.00039 8.06692 7.01876 7.40804 7.83701C6.89805 8.47039 7.71142 8.67851 8.52855 8.67851ZM11.827 6.35351C12.9663 6.35351 13.651 6.09664 13.2333 5.53714C12.706 4.82989 11.4974 5.10476 10.7062 5.51239C9.98392 5.88439 11.0095 6.35351 11.827 6.35351Z" fill="#36B75A"/>
</g>
</svg>
